<svg xmlns="http://www.w3.org/2000/svg" xmlns:xlink="http://www.w3.org/1999/xlink" width="500" zoomAndPan="magnify" viewBox="0 0 375 374.999991" height="500" preserveAspectRatio="xMidYMid meet" version="1.0"><defs><clipPath id="639e91da05"><path d="M 37.5 71 L 225 71 L 225 304.6875 L 37.5 304.6875 Z M 37.5 71 " clip-rule="nonzero"/></clipPath><clipPath id="31f54a281d"><path d="M 233 167 L 337.5 167 L 337.5 304 L 233 304 Z M 233 167 " clip-rule="nonzero"/></clipPath></defs><g clip-path="url(#639e91da05)"><path fill="#dbdb5c" d="M 216.933594 257.621094 C 212.953125 257.132812 208.992188 256.527344 205.054688 255.75 C 197.632812 254.300781 190.773438 251.335938 184.371094 247.355469 C 172.058594 239.710938 162.84375 229.324219 156.980469 216.007812 C 154.480469 210.308594 152.675781 204.425781 151.871094 198.253906 C 151.78125 197.554688 151.859375 196.847656 151.859375 196.148438 C 152.003906 196.128906 152.136719 196.105469 152.289062 196.082031 C 152.433594 196.28125 152.621094 196.472656 152.710938 196.691406 C 154.238281 200.730469 155.773438 204.777344 157.269531 208.828125 C 157.855469 210.429688 158.882812 210.984375 160.609375 210.851562 C 166.128906 210.476562 171.472656 209.347656 176.738281 207.644531 C 187.621094 204.113281 196.992188 198.175781 204.964844 190.023438 C 213.9375 180.875 219.921875 170 222.964844 157.601562 C 224.878906 149.800781 225.375 141.871094 224.511719 133.804688 C 223.285156 122.28125 219.613281 111.714844 213.117188 102.136719 C 203.152344 87.425781 189.523438 77.8125 172.355469 73.152344 C 165.839844 71.382812 159.214844 71.007812 152.523438 71.019531 C 115.222656 71.074219 77.933594 71.074219 40.65625 71.085938 C 37.558594 71.085938 37.558594 71.085938 37.558594 74.128906 L 37.558594 303.949219 L 84.148438 303.949219 C 84.148438 261.203125 84.136719 237.386719 84.105469 213.574219 C 84.105469 212.089844 84.527344 211.105469 86.140625 211.105469 C 92.480469 211.105469 98.816406 211.105469 105.167969 211.226562 C 105.730469 211.238281 106.617188 212 106.792969 212.589844 C 108.285156 217.367188 109.503906 222.222656 111.085938 226.96875 C 114.847656 238.207031 120.519531 248.429688 127.632812 257.910156 C 140.066406 274.445312 155.832031 286.800781 174.722656 295.019531 C 187.941406 300.761719 201.835938 304.015625 216.347656 304.335938 C 216.558594 304.335938 216.746094 304.335938 216.925781 304.324219 L 216.925781 257.621094 Z M 121.117188 164.390625 C 121.117188 164.402344 121.117188 164.414062 121.117188 164.414062 L 87.203125 164.414062 C 84.203125 164.414062 84.171875 164.402344 84.160156 161.460938 C 84.148438 147.820312 84.160156 134.171875 84.171875 120.53125 C 84.183594 118.078125 84.59375 117.722656 87.359375 117.722656 C 107.820312 117.722656 128.296875 117.699219 148.761719 117.765625 C 152.324219 117.777344 155.972656 117.710938 159.425781 118.417969 C 168.816406 120.34375 174.910156 126.050781 177.289062 135.453125 C 179.746094 145.15625 176.625 153.066406 169.136719 159.347656 C 164.855469 162.953125 159.710938 164.359375 154.183594 164.371094 C 143.152344 164.414062 132.136719 164.390625 121.117188 164.390625 Z M 121.117188 164.390625 " fill-opacity="1" fill-rule="nonzero"/></g><g clip-path="url(#31f54a281d)"><path fill="#dbdb5c" d="M 290.320312 167.933594 C 291.148438 173.042969 291.480469 177.953125 291.402344 182.621094 C 291.613281 208.261719 281.722656 222.179688 281.117188 223.019531 C 281.09375 223.050781 281.082031 223.0625 281.082031 223.0625 C 278.671875 227.078125 276.015625 230.75 273.117188 234.082031 C 273.039062 234.179688 272.996094 234.226562 272.996094 234.226562 C 262.742188 245.917969 249.457031 253.316406 233.296875 256.558594 C 233.230469 256.570312 233.183594 256.59375 233.128906 256.601562 L 233.128906 303.96875 C 233.296875 303.949219 233.472656 303.925781 233.660156 303.902344 C 242.664062 302.707031 251.492188 300.804688 260.078125 297.742188 C 270.253906 294.101562 279.800781 289.289062 288.503906 282.941406 C 307.597656 269.015625 321.558594 251.105469 329.921875 228.894531 C 334.421875 216.925781 337.042969 204.632812 337.289062 191.859375 C 337.429688 183.894531 337.375 175.929688 337.410156 167.964844 L 290.320312 167.964844 Z M 290.320312 167.933594 " fill-opacity="1" fill-rule="nonzero"/></g><path fill="#dbdb5c" d="M 201.160156 72.324219 C 206.769531 71.914062 212.367188 71.382812 217.976562 71.128906 C 227.234375 70.699219 236.425781 71.539062 245.464844 73.550781 C 257 76.117188 267.964844 80.222656 278.25 86.109375 C 288.539062 91.992188 297.785156 99.148438 305.828125 107.855469 C 307.664062 109.847656 307.664062 109.933594 305.785156 111.835938 C 296.027344 121.636719 286.269531 131.4375 276.515625 141.238281 C 274.84375 142.921875 274.414062 142.820312 272.730469 141.007812 C 264.589844 132.15625 255.066406 125.34375 243.484375 121.703125 C 240.742188 120.839844 237.910156 120.253906 235.1875 119.347656 C 234.347656 119.070312 233.316406 118.265625 233.0625 117.488281 C 229.511719 106.328125 224.136719 96.140625 216.261719 87.5 C 212.066406 82.898438 207.101562 79.015625 202.488281 74.800781 C 201.925781 74.28125 201.40625 73.71875 200.863281 73.175781 C 200.960938 72.878906 201.0625 72.601562 201.160156 72.324219 Z M 201.160156 72.324219 " fill-opacity="1" fill-rule="nonzero"/></svg>